<?xml version="1.0" encoding="UTF-8"?>
<!DOCTYPE svg PUBLIC "-//W3C//DTD SVG 1.1//EN" "http://www.w3.org/Graphics/SVG/1.1/DTD/svg11.dtd">
<!-- Creator: CorelDRAW X7 -->
<svg xmlns="http://www.w3.org/2000/svg" xml:space="preserve" width="1926px" height="2160px" version="1.1" style="shape-rendering:geometricPrecision; text-rendering:geometricPrecision; image-rendering:optimizeQuality; fill-rule:evenodd; clip-rule:evenodd"
viewBox="0 0 1926 2160"
 xmlns:xlink="http://www.w3.org/1999/xlink">
 <defs>
  <style type="text/css">
   <![CDATA[
    .fil1 {fill:#25185A}
    .fil0 {fill:#FAD605}
   ]]>
  </style>
 </defs>
 <g id="Layer_x0020_1">
  <metadata id="CorelCorpID_0Corel-Layer"/>
  <g id="_2011356316816">
   <rect class="fil0" width="1926" height="2160"/>
   <path class="fil1" d="M0 0l1926 0 0 2160 -1926 0 0 -2160zm61 66l1804 0 0 2028 -1804 0 0 -2028z"/>
   <path class="fil1" d="M121 2032l92 0c-2,-15 -3,-31 -3,-47 0,-230 185,-417 413,-417 227,0 412,187 412,417 0,16 -1,32 -3,47l773 0 0 -629 -100 0c2,15 3,29 3,44 0,187 -146,338 -326,338 -179,0 -325,-151 -325,-338l0 -1319 -678 0 0 128c295,0 535,246 535,549 0,304 -240,550 -535,550l-258 0 0 677z"/>
  </g>
 </g>
</svg>
